<?xml version="1.0" encoding="utf-8"?>
<!-- Generator: Adobe Illustrator 16.0.0, SVG Export Plug-In . SVG Version: 6.00 Build 0)  -->
<!DOCTYPE svg PUBLIC "-//W3C//DTD SVG 1.1//EN" "http://www.w3.org/Graphics/SVG/1.1/DTD/svg11.dtd">
<svg version="1.1" id="Layer_1" xmlns="http://www.w3.org/2000/svg" xmlns:xlink="http://www.w3.org/1999/xlink" x="0px" y="0px"
	 width="834.848px" height="839.883px" viewBox="0 0 834.848 839.883" enable-background="new 0 0 834.848 839.883"
	 xml:space="preserve">
<g>
	<path fill-rule="evenodd" clip-rule="evenodd" fill="#EEEEE1" d="M504.181,704.148c3.655-2.617,7.354-5.179,10.96-7.863
		c15.047-11.202,28.66-23.994,41.656-37.486c19.4-20.138,35.758-42.582,50.396-66.319c13.6-22.051,24.165-45.521,32.141-70.157
		c5.821-17.98,9.951-36.361,12.668-55.058c3.299-22.705,4.868-45.549,5.355-68.476c0.105-4.909,0.352-9.814,0.424-14.723
		c0.023-1.556,0.347-2.173,2.105-2.017c24.313,2.155,48.707,2.069,73.081,2.471c20.867,0.343,39.991,5.72,56.097,19.611
		c9.047,7.803,16.261,17.154,22.568,27.261c10.307,16.518,17.148,34.413,20.865,53.445c2.626,13.444,3.024,27.039,1.331,40.708
		c-2.064,16.672-7.231,32.353-14.878,47.187c-7.258,14.077-16.937,26.408-28.19,37.592c-16.052,15.951-34.446,28.705-53.812,40.148
		c-17.728,10.475-36.195,19.508-55.34,27.09c-19.496,7.721-39.324,14.446-59.957,18.499c-15.699,3.084-31.561,4.549-47.564,4.807
		c-22.438,0.362-44.816,2.01-67.19,3.642c-0.829,0.061-1.661,0.1-2.491,0.147C504.332,704.487,504.256,704.318,504.181,704.148z
		 M628.79,628.094c5.883,0.416,11.3,0.849,16.724,1.169c8.41,0.498,16.813,0.597,25.076-1.442
		c16.403-4.047,31.074-11.785,45.091-20.999c22.854-15.024,40.405-34.741,52.692-59.137c6.393-12.69,10.821-25.997,12.058-40.253
		c1.118-12.883-0.238-25.392-5.978-37.126c-7.582-15.504-19.135-25.992-36.725-29.077c-8.696-1.524-17.477-1.87-26.203-2.889
		c-1.852-0.216-1.76,0.994-1.862,2.171c-1.618,18.518-5.134,36.662-10.226,54.548c-5.045,17.717-11.313,34.966-19.349,51.516
		c-12.55,25.847-27.498,50.26-44.962,73.105C633.066,622.375,631.043,625.101,628.79,628.094z"/>
	<path fill-rule="evenodd" clip-rule="evenodd" fill="#6E4E37" d="M301.764,488.618c2.909,0,7.43-0.018,11.951,0.006
		c3.422,0.017,6.068,2.533,6.152,5.967c0.167,6.773,0.201,13.548,0.481,20.322c0.603,14.541,1.165,29.083,2.3,43.594
		c0.916,11.701,1.803,23.408,2.958,35.087c0.802,8.11,2.281,16.156,3.01,24.271c0.759,8.448,2.214,16.798,3.605,25.125
		c1.308,7.821,1.819,15.739,3.337,23.521c0.323,1.659,0.08,3.42,0.215,5.125c0.65,8.229,0.656,16.506-0.172,24.664
		c-1.457,14.33-3.37,28.713-11.84,41.02c-5.403,7.852-13.116,12.159-22.599,13.399c-7.29,0.953-14.364-0.019-21.524-1.414
		c-14.623-2.85-28.891-6.898-42.876-11.942c-18.179-6.557-35.065-15.708-51.371-26.008c-17.623-11.133-34.376-23.407-49.652-37.616
		c-7.883-7.331-15.07-15.325-21.906-23.646c-11.926-14.517-23.319-29.42-33.485-45.235c-12.854-19.995-23.456-41.117-31.85-63.361
		c-5.146-13.641-9.566-27.508-13.359-41.579c-1.053-3.904,1.292-6.887,5.385-6.95c13.401-0.208,26.804-0.379,40.204-0.627
		c12.227-0.228,24.458-0.384,36.674-0.904c3.716-0.158,7.315,3.045,7.936,6.426c4.043,22.064,9.539,43.766,16.741,65.015
		c6.533,19.273,14.497,37.938,23.901,55.999c6.12,11.753,12.513,23.354,19.785,34.414c7.397,11.251,16.464,21.025,27.194,29.325
		c9.767,7.556,20.521,12.647,32.601,14.879c6.456,1.192,13.017,1.409,19.48-0.05c8.763-1.979,13.579-7.829,14.164-16.796
		c0.54-8.28-0.884-16.315-3.267-24.164c-6.42-21.144-13.15-42.203-17.955-63.789c-3.445-15.484-6.499-31.053-8.801-46.766
		c-1.916-13.085-3.463-26.211-4.954-39.347c-0.395-3.478-0.707-6.966-1.009-10.453c-0.339-3.922,2.068-6.424,5.985-6.6
		c11.216-0.504,22.444-0.168,33.657-0.516C288.626,488.833,294.39,488.86,301.764,488.618z"/>
	<path fill-rule="evenodd" clip-rule="evenodd" fill="#6E4E37" d="M490.591,662.355c-11.434-0.471-22.866-0.956-34.301-1.401
		c-2.491-0.098-4.991,0.022-7.48-0.103c-1.354-0.069-1.767,0.517-1.872,1.72c-0.371,4.179-0.877,8.348-1.166,12.531
		c-0.449,6.512-1.146,13-1.683,19.499c-0.493,5.962-1.118,11.909-1.642,17.867c-0.536,6.107-0.971,12.249-2.01,18.279
		c-0.563,3.262-3.199,5.493-6.4,6.604c-11.392,3.952-22.808,7.828-34.669,10.198c-2.952,0.59-6.493-1.712-6.433-4.698
		c0.154-7.417-0.978-14.749-1.131-22.153c-0.193-9.324-1.274-18.629-1.565-27.955c-0.207-6.614-0.835-13.194-1.08-19.802
		c-0.433-11.656-0.184-23.352-1.817-34.945c-0.043-0.307-0.054-0.624-0.038-0.934c0.794-15.809-0.925-31.594-0.432-47.398
		c0.315-10.12-0.597-20.242-0.001-30.357c0.367-6.228-0.17-12.482,0.155-18.663c0.84-15.935,0.62-31.914,2.067-47.817
		c0.266-2.913,3.349-5.463,6.566-5.547c5.761-0.15,11.523-0.135,17.288-0.29c14.799-0.398,29.606-0.454,44.409-0.696
		c17.916-0.295,35.838-0.447,53.745-1.027c13.813-0.448,27.572-0.09,41.192,2.111c14.091,2.277,27.711,6.21,39.191,15.264
		c9.553,7.534,15.184,17.429,16.622,29.546c1.727,14.545-0.532,28.703-4.728,42.586c-4.351,14.396-10.495,27.979-19.131,40.369
		c-8.896,12.765-20.651,22.354-33.704,30.536c-12.24,7.674-25.434,12.767-39.731,14.958
		C504.113,661.663,497.383,662.283,490.591,662.355z M469.615,610.725c8.653,0.15,17.296,0.039,25.864-1.355
		c12.726-2.07,22.995-8.088,29.931-19.148c4.936-7.872,7.25-16.686,8.219-25.819c1.451-13.688-6.623-23.146-15.748-27.147
		c-6.715-2.944-13.815-4.402-21.122-4.502c-11.38-0.156-22.763-0.113-34.145-0.095c-5.549,0.009-5.598,0.065-6.103,5.554
		c-0.463,5.031-0.809,10.074-1.2,15.112c-0.597,7.67-1.916,15.27-2.108,22.982c-0.133,5.286-0.699,10.547-1.195,15.814
		c-0.502,5.338-1.271,10.661-1.233,16.05c0.011,1.52,0.301,2.146,2.02,2.243C458.401,610.734,464.008,610.714,469.615,610.725z"/>
	<path fill-rule="evenodd" clip-rule="evenodd" fill="#6E4E37" d="M362.569,0c1.897-0.007,2.904,1.397,1.946,3.137
		c-1.963,3.564-4.058,7.066-6.271,10.48c-2.32,3.576-4.579,7.168-6.506,10.981c-1.42,2.812-3.211,5.434-4.693,8.217
		c-2.282,4.282-4.551,8.568-6.521,13.014c-2.679,6.046-5.064,12.242-6.597,18.623c-0.958,3.988-2.245,8.026-2.298,12.228
		c-0.021,1.637,0.033,3.276-0.021,4.911c-0.209,6.22,0.283,12.336,1.559,18.47c1.432,6.881,3.254,13.614,5.508,20.258
		c2.379,7.009,5.043,13.909,7.968,20.698c2.612,6.065,5.548,11.992,8.348,17.977c3.33,7.118,6.59,14.27,10.025,21.335
		c3.1,6.375,5.967,12.857,8.274,19.539c1.146,3.316,1.855,6.887,2.966,10.19c1.853,5.519,1.685,11.288,3.138,16.804
		c0.947,3.593,0.291,7.279,0.389,10.921c0.131,4.808-0.675,9.472-1.549,14.235c-1.204,6.565-3.275,12.702-5.93,18.691
		c-2.963,6.686-7.328,12.473-12.271,17.853c-3.559,3.872-7.558,7.202-11.958,10.016c-4.08,2.609-8.379,4.804-12.872,6.71
		c-2.709,1.148-5.545,1.713-8.275,2.648c-3.135,1.073-6.618,1.397-9.99,0.687c-1.776-0.375-2.293-1.933-1.144-3.305
		c4.093-4.883,7.321-10.347,10.134-15.994c1.904-3.825,3.555-7.828,4.759-12.004c1.589-5.51,3.193-11.066,2.662-16.779
		c-0.429-4.62-1.078-9.254-2.546-13.792c-2.408-7.442-6.115-14.197-10.018-20.858c-2.566-4.381-5.687-8.436-8.5-12.676
		c-2.74-4.13-5.482-8.264-8.086-12.481c-3.524-5.709-6.882-11.516-9.871-17.533c-2.404-4.838-4.66-9.738-6.906-14.65
		c-2.541-5.56-4.606-11.297-6.523-17.047c-1.076-3.227-1.932-6.689-2.946-9.93c-1.44-4.599-2.146-9.333-2.933-13.951
		c-0.848-4.967-1.791-10.024-1.922-15.14c-0.115-4.507-0.625-9.007,0.001-13.516c0.878-6.325,1.338-12.692,2.855-18.949
		c0.739-3.047,1.329-6.14,2.367-9.1c1.247-3.556,2.478-7.146,4.101-10.536c3.378-7.054,7.191-13.875,12.127-19.998
		c4.818-5.976,10.12-11.434,16.088-16.318c8.506-6.96,17.76-12.524,27.84-16.88c5.431-2.346,10.975-4.095,16.676-5.606
		C357.619,0.923,360.057,0.348,362.569,0z"/>
	<path fill-rule="evenodd" clip-rule="evenodd" fill="#EEEEE1" d="M566.666,390.177c-0.584,0.956-0.365,1.823-0.361,2.638
		c0.073,17.617,0.122,35.239-1.367,52.806c-0.863,10.166-2.029,20.311-4.324,30.287c-0.317,1.38-0.86,1.93-2.322,1.929
		c-8.031-0.006-16.045,0.488-24.057,0.988c-1.188,0.075-2.114,0.206-1.755-1.626c5.108-25.999,5.345-52.34,5.44-78.69
		c0.061-16.914,0.403-33.822,1.004-50.726c0.067-1.883,0.684-2.283,2.441-2.269c10.6,0.088,21.2,0.12,31.8,0.027
		c2.051-0.018,3.132,0.55,4.093,2.45c12.449,24.628,26.219,48.525,40.295,72.248c0.294,0.494,0.417,1.17,1.65,1.6
		c0-3.429,0.005-6.646-0.001-9.865c-0.04-21.195-0.37-42.393,0.386-63.586c0.073-2.042,0.561-2.614,2.621-2.573
		c8.104,0.161,16.211,0.182,24.316,0.121c1.732-0.013,2.012,0.546,1.947,2.124c-0.812,20.103-0.223,40.21-0.114,60.316
		c0.068,12.481-0.134,24.969-1.62,37.351c-1.019,8.479-2.37,16.975-5.365,25.086c-0.577,1.564-1.342,2.138-2.995,2.18
		c-8.884,0.223-17.722,1.14-26.56,2.015c-1.002,0.1-1.563-0.098-1.936-1.116c-10.021-27.452-25.763-51.992-39.536-77.534
		c-1.035-1.92-2.117-3.815-3.187-5.716C567.088,390.515,566.939,390.43,566.666,390.177z"/>
	<path fill-rule="evenodd" clip-rule="evenodd" fill="#EEEEE1" d="M384.461,411.693c-0.25,16.699-2.663,30.488-9.961,43.032
		c-9.963,17.126-24.358,27.701-44.529,29.292c-17.234,1.358-32.521-2.77-44.832-15.793c-7.61-8.052-12.669-17.403-15.221-28.013
		c-4.528-18.83-4.633-37.663,1.279-56.3c3.21-10.12,8.352-19.103,15.917-26.618c11.646-11.568,26.118-15.208,41.962-14.667
		c14.919,0.51,27.759,5.802,37.842,17.127c8.484,9.53,13.306,20.765,15.643,33.187C383.876,399.93,384.604,406.967,384.461,411.693z
		 M297.507,414.621c0,2.801-0.222,5.621,0.04,8.396c0.865,9.165,2.803,18.025,8.48,25.604c7.734,10.323,21.299,12.63,32.008,5.436
		c5.58-3.749,9.027-9.147,11.436-15.282c4.41-11.239,4.795-22.962,3.743-34.758c-0.79-8.857-3.096-17.296-8.438-24.687
		c-6.111-8.453-16.885-11.953-26.76-8.502c-8.496,2.969-13.23,9.528-16.391,17.468C298.266,396.736,297.056,405.574,297.507,414.621
		z"/>
	<path fill-rule="evenodd" clip-rule="evenodd" fill="#EEEEE1" d="M261.328,480.895c-2.694,0-4.859-0.01-7.023,0.002
		c-8.651,0.049-17.303,0.08-25.954,0.184c-1.411,0.018-2.292-0.465-3.067-1.634c-9.779-14.739-19.617-29.439-29.371-44.195
		c-0.838-1.267-1.661-1.808-3.184-1.717c-2.954,0.177-5.924,0.267-8.88,0.176c-1.901-0.058-2.338,0.632-2.276,2.44
		c0.469,13.943,0.838,27.893,2.067,41.796c0.171,1.927-0.208,2.493-2.244,2.48c-7.949-0.05-15.9,0.052-23.848,0.242
		c-1.847,0.044-2.269-0.543-2.455-2.298c-2.356-22.119-2.743-44.331-3.237-66.538c-0.469-21.038-1.183-42.065-2.85-63.047
		c-0.178-2.241,0.447-2.702,2.574-2.694c17.926,0.064,35.854-0.096,53.778,0.052c7.032,0.058,14.026,0.946,20.378,4.378
		c11.75,6.35,18.216,16.222,19.32,29.525c0.551,6.643,0.123,13.26-1.521,19.731c-2.613,10.274-8.896,17.857-17.706,23.489
		c-3.051,1.95-2.647,1.512-0.763,4.279c11.535,16.939,23.083,33.871,34.623,50.809C260.166,479.055,260.608,479.778,261.328,480.895
		z M181.09,390.788c0,5.606,0.019,11.212-0.016,16.817c-0.007,1.172,0.136,1.916,1.613,1.857c4.9-0.192,9.813-0.148,14.704-0.457
		c5.269-0.332,10.019-1.866,13.574-6.233c4.198-5.154,4.104-11.11,3.483-17.116c-0.714-6.907-5.27-11.496-12.166-12.579
		c-6.886-1.081-13.021-0.392-19.942-0.472c-1.527-0.018-1.252,0.991-1.25,1.911"/>
	<path fill-rule="evenodd" clip-rule="evenodd" fill="#EEEEE1" d="M99.59,411.457c7.871,0,15.779-0.324,23.648-0.448
		c1.988-0.031,2.664-0.405,2.709,1.717c0.289,13.637,0.592,27.277,1.596,40.887c0.459,6.216,0.949,12.43,1.528,18.635
		c0.122,1.311-0.172,1.94-1.429,2.435c-17.339,6.817-35.271,9.751-53.839,7.854c-13.865-1.416-26.567-5.918-37.048-15.543
		c-8.721-8.008-13.641-18.152-15.867-29.563c-3.342-17.124-3.114-34.274,1.089-51.248c2.071-8.364,5.478-16.124,10.665-23.197
		C41.196,351.319,53,345.912,66.832,344.28c19.146-2.259,37.234,1.133,54.006,10.899c1.106,0.645,1.78,1.301,1.884,2.65
		c0.776,10.181,1.477,20.364,1.755,30.572c0.046,1.692-2.023,2.371-3.784,1.149c-1.403-0.974-2.647-2.176-3.958-3.281
		c-6.097-5.139-12.359-10.066-19.976-12.773c-12.239-4.352-23.979-3.953-34.276,4.873c-5.303,4.547-8.885,10.415-10.669,17.258
		c-3.601,13.809-3.579,27.631,0.395,41.328C56.572,452,68.15,460.785,84.477,461.875c4.055,0.271,8.092,0.156,12.136-0.224
		c1.505-0.143,2.124-0.55,1.976-2.27c-0.592-6.833-1.078-13.678-1.438-20.526c-0.095-1.798-0.677-2.187-2.37-2.085
		c-6.069,0.36-12.15,0.52-18.219,0.871c-1.649,0.096-2.287-0.188-2.335-2.05c-0.183-7.245-0.524-14.487-0.913-21.727
		c-0.094-1.743,0.246-2.474,2.198-2.449C83.536,411.514,91.563,411.457,99.59,411.457C99.59,411.061,99.59,411.852,99.59,411.457z"
		/>
	<path fill-rule="evenodd" clip-rule="evenodd" fill="#EEEEE1" d="M405.342,394.058c0.367-15.428,0.762-30.855,1.063-46.285
		c0.034-1.739,0.548-2.255,2.281-2.243c8.651,0.06,17.304,0.034,25.954-0.054c1.662-0.017,2.098,0.504,2.039,2.144
		c-1.017,28.429-1.315,56.874-1.718,85.316c-0.073,5.178,0.563,10.261,2.79,15.04c2.446,5.251,6.625,8.057,12.256,8.982
		c3.981,0.654,7.934,0.584,11.842-0.32c7.92-1.834,12.646-6.928,14.712-14.679c1.11-4.166,1.679-8.401,1.754-12.702
		c0.394-22.209,0.755-44.419,1.169-66.627c0.094-5.064,0.403-10.124,0.511-15.188c0.031-1.496,0.493-2.023,2.036-2.011
		c8.886,0.065,17.771,0.071,26.656,0.01c1.625-0.011,1.938,0.604,1.863,2.078c-1.333,27.021-0.832,54.082-1.645,81.114
		c-0.279,9.314-1.553,18.392-5.813,26.943c-6.172,12.387-15.948,20.39-28.905,24.548c-13.356,4.286-26.98,4.868-40.536,1.088
		c-15.126-4.218-23.338-14.976-26.86-29.794c-1.613-6.792-1.928-13.681-1.819-20.654
		C405.162,418.533,405.342,406.294,405.342,394.058C405.447,394.058,405.236,394.058,405.342,394.058z"/>
	<path fill-rule="evenodd" clip-rule="evenodd" fill="#6E4E37" d="M223.157,195.79c0.538-4.582-2.338-8.87-4.989-13.131
		c-3.462-5.566-7.026-11.053-10.189-16.812c-3.134-5.706-5.98-11.537-8.387-17.558c-2.216-5.547-3.785-11.307-5.155-17.16
		c-1.845-7.875-1.865-15.762-0.708-23.551c1.389-9.339,5.896-17.334,13.355-23.349c3.682-2.969,7.618-5.631,12.48-6.425
		c0.826-0.135,1.621-0.518,2.402-0.854c1.141-0.489,2.3-0.732,3.218,0.278c0.922,1.015,0.904,2.193,0.308,3.465
		c-1.102,2.349-1.983,4.804-3.136,7.126c-2.977,5.996-3.165,12.296-1.458,18.525c1.093,3.99,3.188,7.69,5.348,11.306
		c4.844,8.109,10.512,15.635,15.875,23.385c5.782,8.355,12.404,16.253,16.668,25.536c4.794,10.433,7.195,21.182,4.854,33.02
		c-1.637,8.274-4.773,15.59-9.298,22.37c-3.128,4.688-6.829,8.998-11.356,12.629c-4.783,3.837-9.675,7.485-15.096,10.258
		c-3.87,1.98-7.945,3.618-12.133,5.013c-3.538,1.178-7.271,1.368-10.706,2.755c-1.533,0.619-3.042,0.509-3.981-0.781
		c-0.95-1.304-0.437-2.754,0.377-4.14c2.258-3.841,4.443-7.726,6.584-11.634c2.183-3.984,4.369-7.971,6.383-12.042
		c1.77-3.573,3.564-7.128,5.038-10.86c0.936-2.37,1.611-4.815,2.556-7.173C223.21,202.993,223.01,199.801,223.157,195.79z"/>
	<path fill-rule="evenodd" clip-rule="evenodd" fill="#6E4E37" d="M477.569,243.562c-0.187,3.243,0.434,6.438,0.099,9.738
		c-0.496,4.887-1.674,9.521-3.302,14.107c-1.823,5.133-4.487,9.795-7.665,14.184c-4.467,6.169-10.02,11.198-16.165,15.662
		c-3.606,2.62-7.459,4.79-11.448,6.669c-4.553,2.146-9.246,3.989-14.172,5.213c-2.383,0.592-4.721,1.258-7.159,1.67
		c-1.691,0.286-2.484-0.465-3.354-1.426c-0.919-1.017-0.318-1.964,0.223-2.972c4.089-7.617,8.594-15,12.438-22.756
		c2.079-4.194,4.269-8.328,5.957-12.698c1.918-4.96,3.33-10.099,4.191-15.317c0.521-3.156-0.986-6.319-2.401-9.028
		c-4.638-8.877-10.604-16.998-15.253-25.883c-3.632-6.941-6.936-14.069-9.222-21.558c-2.858-9.359-4.712-18.983-3.83-28.816
		c1.021-11.398,5.466-21.28,14.626-28.562c3.746-2.979,8.05-5.055,12.66-6.431c0.371-0.11,0.759-0.297,1.124-0.268
		c1.402,0.111,3.175-0.688,4.024,1.002c0.757,1.504,0.014,2.977-0.738,4.384c-3.625,6.789-6.348,13.856-4.522,21.694
		c0.812,3.481,2.312,6.813,4.004,10.035c4.654,8.857,10.747,16.77,16.3,25.031c4.352,6.473,9.279,12.563,13.563,19.079
		c2.49,3.789,4.578,7.883,6.455,12.062c1.5,3.337,1.822,6.988,3.133,10.351C477.758,240.322,477.477,241.947,477.569,243.562z"/>
</g>
<path fill="#6E4E37" d="M336.863,824.883c-119.851,0-226.521-7.585-294.916-19.379c41.089,19.974,157.594,34.379,294.916,34.379
	c137.324,0,253.827-14.405,294.916-34.379C563.385,817.298,456.715,824.883,336.863,824.883z"/>
<path fill="#EEEEE1" d="M487.068,724.258c-35.91,25.249-90.564,41.375-151.788,41.375c-61.096,0-115.651-16.058-151.565-41.216
	C74.668,732.069,0,747.653,0,765.633c0,25.543,150.683,46.25,336.557,46.25c185.876,0,336.557-20.707,336.557-46.25
	C673.113,747.526,597.376,731.851,487.068,724.258z"/>
</svg>
